# xmcd
#
# Track frame offsets: 
#        150
#        13553
#        23768
#        38415
#        49463
#        63062
#        80502
#        92852
#        106132
#        116868
#        128490
#
# Disc length: 1881 seconds
#
# Revision: 1
# Processed by: cddbd v1.5.2PL0 Copyright (c) Steve Scherf et al.
# Submitted via: ExactAudioCopy v0.95a3
#
DISCID=8007570b
DTITLE=Ila Auto - Over The Next Hill
DYEAR=2008
DGENRE=Bluegrass
TTITLE0=Faultline
TTITLE1=Little Honey
TTITLE2=Lights On The Hill
TTITLE3=The Exit Sign
TTITLE4=Half Past Three
TTITLE5=Wayfarin' Stranger
TTITLE6=Over The Next Hill
TTITLE7=Ten Acres
TTITLE8=Blanktvannsbråten
TTITLE9=Long Time Workin' It Out
TTITLE10=Easier To Go Down Hill
EXTD=
EXTT0=
EXTT1=
EXTT2=
EXTT3=
EXTT4=
EXTT5=
EXTT6=
EXTT7=
EXTT8=
EXTT9=
EXTT10=
PLAYORDER=
